. 
 
http://www.torrenting.com          :     Once & For all ;)


               www . Torrenting . Com 

(((((((((((((= Enjoy No RAR releases =))))))))))))))))))))


...................................NFO:....................................

.[center][IMG]http://img43.imageshack.us/img43/8135/bornbad.jpg[/IMG]


[color=blue][size=5][b]Born.Bad.Uncut.2011.BDRip.XVID.AC3.HQ.Hive-CM8[/b][/size][/color]


[b]Thx Hive

CM8 Doing It Right The First Time :D


Source: Bluray

Video: 720x400 @bitrate
Audio: English AC3 5.1 @448
Sample: yes included[/b]


[url]http://www.imdb.com/title/tt1869315/[/url]


General
Complete name                  : Born.Bad.Uncut.2011.BDRip.XVID.AC3.HQ.Hive-CM8.avi
Format                         : AVI
Format/Info                    : Audio Video Interleave
File size                      : 1.39 GiB
Duration                       : 1h 32mn
Overall bit rate               : 2 157 Kbps
Writing application            : Nandub v1.0rc2
Writing library                : Nandub build 1853/release

Video
ID                             : 0
Format                         : MPEG-4 Visual
Format profile                 : Advanced Simple@L5
Format settings, BVOP          : 1
Format settings, QPel          : Yes
Format settings, GMC           : No warppoints
Format settings, Matrix        : Default (H.263)
Muxing mode                    : Packed bitstream
Codec ID                       : XVID
Codec ID/Hint                  : XviD
Duration                       : 1h 32mn
Bit rate                       : 1 700 Kbps
Width                          : 720 pixels
Height                         : 400 pixels
Display aspect ratio           : 16:9
Frame rate                     : 23.976 fps
Color space                    : YUV
Chroma subsampling             : 4:2:0
Bit depth                      : 8 bits
Scan type                      : Progressive
Compression mode               : Lossy
Bits/(Pixel*Frame)             : 0.246
Stream size                    : 1.10 GiB (79%)
Writing library                : XviD 1.2.1 (UTC 2008-12-04)

Audio
ID                             : 1
Format                         : AC-3
Format/Info                    : Audio Coding 3
Mode extension                 : CM (complete main)
Codec ID                       : 2000
Duration                       : 1h 32mn
Bit rate mode                  : Constant
Bit rate                       : 448 Kbps
Channel(s)                     : 6 channels
Channel positions              : Front: L C R, Side: L R, LFE
Sampling rate                  : 48.0 KHz
Bit depth                      : 16 bits
Compression mode               : Lossy
Stream size                    : 296 MiB (21%)
Alignment                      : Split accross interleaves
Interleave, duration           : 42 ms (1.00 video frame)
Interleave, preload duration   : 500 ms



Plot:

Brooke (Bonnie Dennison) is devastated that she's pulled out of her high school so her family 
can move to a new town. Even worse, her stepmother is pregnant with a new addition to her 
dysfunctional family. All seems lost until she becomes smitten with a charming guy (Michael Welch). 
He's gorgeous, sweet, thrilling, everything her life isn't...until he reveals a menacing dark side.. 


Cast:

Meredith Monroe	... 	Katherine Duncan
Bonnie Dennison	... 	Brooke Duncan
Michael Welch	... 	Denny
David Chokachi	... 	Walter Duncan
Gerald Webb	... 	Nate


[img]http://img830.imageshack.us/img830/8345/34354917.png[/img]
[img]http://img88.imageshack.us/img88/8358/boboqy.png[/img]
[img]http://img403.imageshack.us/img403/8328/bobobo.png[/img]
[img]http://img10.imageshack.us/img10/4493/bobobobo.png[/img]
[img]http://img26.imageshack.us/img26/7267/bobobobobobo.png[/img]
[img]http://img41.imageshack.us/img41/2061/bobobobobo.png[/img]




Greetz

ViSiON,SPK,SANTi,3LT0N,FUSiON,YanKeeS,MAGNET,T0XiC,LKRG,Feel-Free,FANTASIA-PLAY,FANTASIA-M,FLAWL3SS,
WBZ,BHRG,NOVA,D2U,THC,Vik,Rapeseed,SAFC,goldadvance,MEMORY100,KaN1vE,Unevano,Pinnz,Wayne,
Mr Hive,and most P2P groups
Great Work Guys :D

LOOKING FOR ANYTHING YOU WANT TO LOOK AND SOUND BETTER

CM8@hushmail.com [/center]